<svg width="1200" height="366" viewBox="0 0 1200 366" fill="none" xmlns="http://www.w3.org/2000/svg">
<path d="M334.327 92.1202C284.581 4.92446 175.327 -25.4045 89.7824 25.3017C3.77323 75.534 -25.5164 187.372 24.2295 274.568C73.5104 361.763 183.23 391.618 268.774 341.386C354.319 290.68 383.608 179.316 334.327 92.1202ZM257.151 160.834L189.274 201.115C179.511 206.801 167.423 203.484 161.844 193.533C156.265 183.581 159.52 171.26 169.283 165.573L217.169 137.614C199.037 121.975 172.072 118.658 150.221 131.453C122.326 148.039 112.563 184.529 128.835 212.962C145.107 241.395 180.906 251.347 208.8 234.761C218.564 229.074 230.651 232.392 236.23 242.343C241.809 252.295 238.555 264.616 228.792 270.303C181.835 297.788 121.397 281.676 93.9666 233.339C67.0016 185.476 82.8087 123.871 130.23 95.9113C177.186 68.4257 237.625 84.5379 265.055 132.875C270.169 142.826 266.915 155.148 257.151 160.834Z" fill="#FF832C"/>
<path d="M464.93 289.252V112.491C464.93 96.8526 477.018 84.5315 492.36 84.5315C507.702 84.5315 519.79 96.8526 519.79 112.491V293.991C519.79 315.79 513.281 333.324 500.263 345.645C487.246 358.44 471.439 364.6 452.377 364.6C440.289 364.6 428.667 361.283 417.509 355.123C406.351 348.488 402.631 333.798 409.14 322.424L410.535 320.055C416.579 310.103 428.202 307.26 438.895 311.051C441.684 311.999 444.474 312.473 447.728 312.473C452.377 312.473 456.561 310.577 459.816 306.786C463.07 302.521 464.93 296.834 464.93 289.252ZM469.114 58.9415C463.07 52.7809 459.816 44.7248 459.816 35.7209C459.816 26.717 463.07 18.6608 469.114 12.5003C475.158 6.33969 483.062 3.02246 491.895 3.02246C500.728 3.02246 508.632 6.33969 514.676 12.5003C520.72 18.6608 523.974 26.717 523.974 35.7209C523.974 44.7248 520.72 52.7809 514.676 58.9415C508.632 65.102 500.728 68.4193 491.895 68.4193C483.062 68.4193 475.623 65.5759 469.114 58.9415Z" fill="#FF832C"/>
<path d="M768.586 180.736C768.586 209.643 758.823 234.286 738.832 254.189C718.841 274.092 694.2 284.044 664.446 284.044C634.691 284.044 609.586 274.092 590.059 254.189C570.068 234.286 560.305 209.643 560.305 180.736C560.305 151.829 570.068 127.186 590.059 106.809C610.051 86.9058 634.691 76.9541 664.446 76.9541C694.2 76.9541 719.305 86.9058 738.832 106.809C758.823 127.186 768.586 151.829 768.586 180.736ZM615.629 180.736C615.629 197.322 620.279 210.591 629.577 221.017C638.875 231.442 650.498 236.655 664.91 236.655C679.323 236.655 690.946 231.442 700.244 221.017C709.542 210.591 714.191 197.322 714.191 180.736C714.191 164.15 709.542 150.881 700.244 140.455C690.946 130.03 679.323 124.817 664.91 124.817C650.498 124.817 638.875 130.03 629.577 140.455C620.279 150.881 615.629 164.15 615.629 180.736Z" fill="#FF832C"/>
<path d="M922.97 76.9554C946.681 76.9554 967.602 86.4332 985.734 105.389C1003.4 124.344 1012.23 148.987 1012.23 178.842C1012.23 208.697 1002.94 233.813 984.804 253.716C966.672 274.094 945.751 284.045 922.505 284.045C899.26 284.045 879.733 274.094 864.391 254.664V265.564C864.391 280.254 852.768 292.101 838.356 292.101H835.566C821.154 292.101 809.531 280.254 809.531 265.564V28.6187C809.531 12.9803 821.619 0.65918 836.961 0.65918C852.303 0.65918 864.391 12.9803 864.391 28.6187V102.545C879.268 85.4854 899.26 76.9554 922.97 76.9554ZM863.461 181.211C863.461 197.323 868.11 210.592 876.944 221.018C885.777 231.443 896.47 236.656 909.488 236.656C922.041 236.656 933.198 231.443 942.962 221.018C952.26 210.592 957.374 197.323 957.374 181.211C957.374 165.099 952.725 151.356 943.427 140.457C934.128 129.557 922.97 123.871 909.953 123.871C896.935 123.871 886.242 129.083 876.944 139.983C868.11 150.882 863.461 164.625 863.461 181.211Z" fill="#FF832C"/>
<path d="M1200 218.652C1200 238.555 1193.03 254.193 1178.61 266.041C1164.2 277.888 1146.07 284.048 1124.22 284.048C1109.34 284.048 1094.46 281.205 1078.66 275.992C1070.29 273.149 1062.85 269.832 1055.41 265.567C1044.25 259.406 1041 244.715 1048.44 234.29C1054.95 225.286 1067.03 222.917 1076.33 228.129C1092.14 237.133 1108.41 241.398 1125.61 241.398C1132.59 241.398 1138.17 239.977 1142.35 237.133C1146.53 234.29 1148.39 230.499 1148.39 225.76C1148.39 221.021 1145.6 216.756 1139.56 212.491C1133.98 208.7 1125.61 204.909 1114.45 201.118C1103.76 197.8 1095.39 194.483 1089.35 192.114C1083.77 189.744 1077.26 185.953 1069.82 181.214C1054.95 171.736 1047.51 157.994 1047.51 139.038C1047.51 120.556 1054.95 105.392 1069.36 93.5447C1084.24 81.6974 1102.83 76.0107 1126.08 76.0107C1143.28 76.0107 1160.48 80.2758 1177.68 89.2797C1187.91 94.4924 1191.63 107.761 1186.05 117.713L1185.59 118.661C1180.01 128.613 1168.38 131.93 1158.16 127.191C1147 121.978 1135.38 119.135 1124.22 119.135C1107.48 119.135 1098.65 123.874 1098.65 133.351C1098.65 138.564 1101.44 142.829 1106.55 145.673C1112.13 148.516 1120.96 152.307 1133.52 156.098C1146.07 159.889 1154.9 163.206 1160.02 165.102C1165.13 166.998 1171.64 170.315 1179.08 175.054C1193.03 185.005 1200 198.748 1200 218.652Z" fill="#FF832C"/>
</svg>
